<svg xmlns="http://www.w3.org/2000/svg" viewBox="0 0 64 64"><g id="surface1"><path d="M5 15h54v40H5z" fill="#c5e4fa"/><path d="M38.11 55L59 34.11V16h-2.79l-39 39zM5.29 55h8.35l39-39h-8.35zM5 51.71L40.71 16h-3.96L5 47.75z" fill="#e3f2ff"/><path d="M7 9h50c1.105 0 2 .895 2 2v6c0 1.105-.895 2-2 2H7c-1.105 0-2-.895-2-2v-6c0-1.105.895-2 2-2z" fill="#acb7d0"/><path d="M18 25h12c.55 0 1 .45 1 1v2c0 .55-.45 1-1 1H18c-.55 0-1-.45-1-1v-2c0-.55.45-1 1-1zM24 35h16c.55 0 1 .45 1 1v2c0 .55-.45 1-1 1H24c-.55 0-1-.45-1-1v-2c0-.55.45-1 1-1zM34 45h16c.55 0 1 .45 1 1v2c0 .55-.45 1-1 1H34c-.55 0-1-.45-1-1v-2c0-.55.45-1 1-1z" fill="#f9e3ae"/><path d="M55 18h-4c-.55 0-1 .45-1 1s.45 1 1 1h4c.55 0 1-.45 1-1s-.45-1-1-1z" fill="#8d6c9f"/><path d="M57 8H7a3 3 0 0 0-3 3v42a3 3 0 0 0 3 3h50a3 3 0 0 0 3-3V11a3 3 0 0 0-3-3zm1 45c0 .55-.45 1-1 1H7c-.55 0-1-.45-1-1V20h41c.55 0 1-.45 1-1s-.45-1-1-1H6v-7c0-.55.45-1 1-1h50c.55 0 1 .45 1 1z" fill="#8d6c9f"/><path d="M20 12c-.55 0-1 .45-1 1v2c0 .55.45 1 1 1s1-.45 1-1v-2c0-.55-.45-1-1-1zM15 12c-.55 0-1 .45-1 1v2c0 .55.45 1 1 1s1-.45 1-1v-2c0-.55-.45-1-1-1zM10 12c-.55 0-1 .45-1 1v2c0 .55.45 1 1 1s1-.45 1-1v-2c0-.55-.45-1-1-1zM35 12c-.55 0-1 .45-1 1v2c0 .55.45 1 1 1s1-.45 1-1v-2c0-.55-.45-1-1-1zM40 12c-.55 0-1 .45-1 1v2c0 .55.45 1 1 1s1-.45 1-1v-2c0-.55-.45-1-1-1zM45 12c-.55 0-1 .45-1 1v2c0 .55.45 1 1 1s1-.45 1-1v-2c0-.55-.45-1-1-1zM50 16c.55 0 1-.45 1-1v-2c0-.55-.45-1-1-1s-1 .45-1 1v2c0 .55.45 1 1 1zM55 12c-.55 0-1 .45-1 1v2c0 .55.45 1 1 1s1-.45 1-1v-2c0-.55-.45-1-1-1zM25 12c-.55 0-1 .45-1 1v2c0 .55.45 1 1 1s1-.45 1-1v-2c0-.55-.45-1-1-1zM30 12c-.55 0-1 .45-1 1v2c0 .55.45 1 1 1s1-.45 1-1v-2c0-.55-.45-1-1-1zM9 28h4c.55 0 1-.45 1-1s-.45-1-1-1H9c-.55 0-1 .45-1 1s.45 1 1 1zM55 46h-3a1.262 1.262 0 0 0-.172 0c-.422-1.2-1.555-2-2.828-2H35a3 3 0 0 0 0 6h14c1.273 0 2.406-.8 2.828-2 .059.004.117.004.172 0h3c.55 0 1-.45 1-1s-.45-1-1-1zm-6 2H35c-.55 0-1-.45-1-1s.45-1 1-1h14c.55 0 1 .45 1 1s-.45 1-1 1zM55 26H31.82A3 3 0 0 0 29 24H19a3 3 0 0 0 0 6h10a3 3 0 0 0 2.82-2H55c.55 0 1-.45 1-1s-.45-1-1-1zm-26 2H19c-.55 0-1-.45-1-1s.45-1 1-1h10c.55 0 1 .45 1 1s-.45 1-1 1zM9 38h10c.55 0 1-.45 1-1s-.45-1-1-1H9c-.55 0-1 .45-1 1s.45 1 1 1zM29 46H9c-.55 0-1 .45-1 1s.45 1 1 1h20c.55 0 1-.45 1-1s-.45-1-1-1zM55 36H41.82A3 3 0 0 0 39 34H25a3 3 0 0 0 0 6h14a3 3 0 0 0 2.82-2H55c.55 0 1-.45 1-1s-.45-1-1-1zm-16 2H25c-.55 0-1-.45-1-1s.45-1 1-1h14c.55 0 1 .45 1 1s-.45 1-1 1z" fill="#8d6c9f"/></g></svg>
