<svg xmlns="http://www.w3.org/2000/svg" id="Layer_1" viewBox="0 0 64 64"><path d="M3 61a2 2 0 0 1-2-2V25a2 2 0 0 1 2-2h58a2 2 0 0 1 2 2v34a2 2 0 0 1-2 2H3z" fill="#ed7899"/><path d="M60 61H4a3 3 0 0 1-3-3v-2h62v2a3 3 0 0 1-3 3z" fill="#e0678f"/><path d="M63 29H1v-4a2 2 0 0 1 2-2h58a2 2 0 0 1 2 2v4z" fill="#ef8eb1"/><circle cx="32" cy="6" r="3" fill="#f6d397"/><path d="M61 22h-1.708L35.81 7.22c.13-.39.19-.8.19-1.22 0-1.07-.42-2.07-1.17-2.83-1.51-1.51-4.15-1.51-5.66 0C28.42 3.93 28 4.93 28 6c0 .42.06.83.19 1.22L4.708 22H3c-1.654 0-3 1.346-3 3v34c0 1.654 1.346 3 3 3h58c1.654 0 3-1.346 3-3V25c0-1.654-1.346-3-3-3zM30 6c0-.53.21-1.04.59-1.41.37-.38.88-.59 1.41-.59s1.04.21 1.41.59c.38.37.59.88.59 1.41 0 .02 0 .05-.01.07-.01.51-.22.99-.58 1.34-.14.15-.31.26-.49.35-.28.15-.6.22-.92.22s-.64-.07-.92-.22c-.18-.09-.35-.2-.49-.35a1.92 1.92 0 0 1-.58-1.34C30 6.05 30 6.02 30 6zm-.74 2.91a3.986 3.986 0 0 0 5.48 0L55.532 22H8.468L29.26 8.91zM3 24h58a1 1 0 0 1 1 1v3H2v-3a1 1 0 0 1 1-1zm59 35a1 1 0 0 1-1 1H3a1 1 0 0 1-1-1v-1a1 1 0 0 0 1-1v-2a1 1 0 0 0-1-1V30h60v24a1 1 0 0 0-1 1v2a1 1 0 0 0 1 1v1z" fill="#8d6c9f"/><path d="M22 54a1 1 0 0 0-1 1v2a1 1 0 1 0 2 0v-2a1 1 0 0 0-1-1zM27 54a1 1 0 0 0-1 1v2a1 1 0 1 0 2 0v-2a1 1 0 0 0-1-1zM32 54a1 1 0 0 0-1 1v2a1 1 0 1 0 2 0v-2a1 1 0 0 0-1-1zM37 54a1 1 0 0 0-1 1v2a1 1 0 1 0 2 0v-2a1 1 0 0 0-1-1zM12 54a1 1 0 0 0-1 1v2a1 1 0 1 0 2 0v-2a1 1 0 0 0-1-1zM7 54a1 1 0 0 0-1 1v2a1 1 0 1 0 2 0v-2a1 1 0 0 0-1-1zM17 54a1 1 0 0 0-1 1v2a1 1 0 1 0 2 0v-2a1 1 0 0 0-1-1zM47 54a1 1 0 0 0-1 1v2a1 1 0 1 0 2 0v-2a1 1 0 0 0-1-1zM42 54a1 1 0 0 0-1 1v2a1 1 0 1 0 2 0v-2a1 1 0 0 0-1-1zM52 54a1 1 0 0 0-1 1v2a1 1 0 1 0 2 0v-2a1 1 0 0 0-1-1zM57 54a1 1 0 0 0-1 1v2a1 1 0 1 0 2 0v-2a1 1 0 0 0-1-1z" fill="#8d6c9f"/><path d="M31 34h-2c-1.654 0-3 1.346-3 3v8c0 1.654 1.346 3 3 3h2c1.654 0 3-1.346 3-3v-8c0-1.654-1.346-3-3-3zm1 11a1 1 0 0 1-1 1h-2a1 1 0 0 1-1-1v-8a1 1 0 0 1 1-1h2a1 1 0 0 1 1 1v8zM24 46h-4V35a1 1 0 1 0-2 0v12a1 1 0 0 0 1 1h5a1 1 0 1 0 0-2zM53 36a1 1 0 1 0 0-2h-6a1 1 0 0 0-1 1v12a1 1 0 0 0 1 1h6a1 1 0 1 0 0-2h-5v-4h3a1 1 0 1 0 0-2h-3v-4h5zM15 44a1 1 0 0 0-1 1 1 1 0 0 1-1 1h-2a1 1 0 0 1-1-1v-8a1 1 0 0 1 1-1h2a1 1 0 0 1 1 1 1 1 0 1 0 2 0c0-1.654-1.346-3-3-3h-2c-1.654 0-3 1.346-3 3v8c0 1.654 1.346 3 3 3h2c1.654 0 3-1.346 3-3a1 1 0 0 0-1-1zM39 36h2a1 1 0 0 1 1 1 1 1 0 1 0 2 0c0-1.654-1.346-3-3-3h-2c-1.654 0-3 1.346-3 3v2c0 1.654 1.346 3 3 3h2a1 1 0 0 1 1 1v2a1 1 0 0 1-1 1h-2a1 1 0 0 1-1-1 1 1 0 1 0-2 0c0 1.654 1.346 3 3 3h2c1.654 0 3-1.346 3-3v-2c0-1.654-1.346-3-3-3h-2a1 1 0 0 1-1-1v-2a1 1 0 0 1 1-1z" fill="#faefde"/></svg>
